<svg viewBox="0 0 104 97" xmlns="http://www.w3.org/2000/svg"><path d="M14 85l3 9h72s5-9 4-10c-2-2-79 0-79 1" fill="#7C4E32"/><path d="M19 47s-9 7-13 14c-5 6 3 7 3 7l1 14s10 8 23 8c14 0 26 1 28 0s9-2 9-4c1-1 27 1 27-9s7-20-11-29c-17-9-67-1-67-1" fill="#E30000"/><path d="M17 32c-3 48 80 43 71-3L53 14" fill="#FFE1C4"/><path d="M17 32c9-36 61-32 71-3-20-9-40-9-71 3" fill="#8ED8F8"/><path d="M54 35a10 8 60 1 1 0 .1zm-17 3a10 8-60 1 1 0 .1z" fill="#FFF"/><path d="M41 6c1-1 4-3 8-3 3 0 9-1 14 3l-1 2h-4s-3 1-5 0-1-1-1-1l-3 1-2-1h-1s-1 2-3 2c0 0-2-1-2-3M17 34v-2s35-20 71-3v2s-35-17-71 3M5 62c3-2 5-2 8 0s13 6 8 11c-2 2-6 0-8 0-1 1-4 2-6 1-4-3-6-8-2-12m94-3s-9-2-11 4l-3 5c0 1-2 3 3 3s5 2 7 2c3 0 7-1 7-4 0-4-1-11-3-10" fill="#FFF200"/><path d="M56 78v1m-1-10v1m0 17v1" stroke="#000" stroke-linecap="round"/><path d="M60 36a1 1 0 1 1 0-.1M49 36a1 1 0 1 1 0-.1M57 55a2 3 0 1 1 0-.1M12 94s20-4 42 0c0 0 27-4 39 0z"/><path d="M50 59s4 3 10 0m-4 7l2 12-2 12M25 50s10 12 23 12 24 0 35-15" fill="none" stroke="#000" stroke-width=".5"/></svg>